<svg aria-hidden="true" style="position: absolute; width: 0; height: 0; overflow: hidden;" version="1.1" xmlns="http://www.w3.org/2000/svg" xmlns:xlink="http://www.w3.org/1999/xlink">
<defs>
<symbol id="icon-Facebook2" viewBox="0 0 16 32">
<path fill="#aaeff9" style="fill: var(--color1, #aaeff9)" d="M4.059 32h6.054v-15.999h5.497l0.59-5.515h-6.090l0.008-2.757c0-1.439 0.098-2.206 2.18-2.206h3.848v-5.515h-5.515c-5.348 0-6.579 2.738-6.579 7.237v3.247h-4.059v5.515h4.059z"></path>
</symbol>
<symbol id="icon-social-media" viewBox="0 0 32 32">
<path fill="#808080" style="fill: var(--color2, #808080)" d="M16.001 32.001c-3.128-0.002-6.046-0.903-8.508-2.46l0.066 0.039-6.668 2.384c-0.067 0.025-0.144 0.039-0.224 0.039-0.368 0-0.666-0.298-0.666-0.666 0-0.086 0.016-0.169 0.046-0.245l-0.002 0.005 2.489-6.46c-1.588-2.442-2.533-5.43-2.533-8.639 0-8.836 7.163-15.999 15.999-15.999 0 0 0 0 0 0h0.014c8.834 0.004 15.994 7.166 15.994 16.001 0 8.837-7.164 16.001-16.001 16.001-0.002 0-0.005 0-0.007 0h0zM11.335 7.999c-1.904 0.331-3.334 1.971-3.334 3.946 0 0.019 0 0.037 0 0.056l-0-0.003c0 2.093 2.505 6.121 4.194 7.805s5.713 4.195 7.805 4.195h0.042c0.002 0 0.004 0 0.007 0 1.976 0 3.617-1.429 3.948-3.31l0.003-0.024v-1.333c0-0.001 0-0.002 0-0.002 0-0.261-0.15-0.487-0.369-0.596l-0.004-0.002c-0.016-0.008-1.639-0.803-2.656-1.333-0.204-0.107-0.445-0.17-0.702-0.17-0.002 0-0.005 0-0.007 0h0c-0.982 0.146-1.831 0.627-2.445 1.321l-0.004 0.004c-1.040-0.405-1.93-0.98-2.679-1.701l0.003 0.003c-0.719-0.746-1.294-1.636-1.679-2.621l-0.019-0.054c0.68-0.691 1.74-2.017 1.153-3.158-0.529-1.028-1.332-2.654-1.333-2.656-0.113-0.218-0.336-0.365-0.594-0.366h-1.333z"></path>
<path fill="#aaeff9" style="fill: var(--color1, #aaeff9)" d="M16.001 32.001c-3.128-0.002-6.046-0.903-8.508-2.46l0.066 0.039-6.668 2.384c-0.067 0.025-0.144 0.039-0.224 0.039-0.368 0-0.666-0.298-0.666-0.666 0-0.086 0.016-0.169 0.046-0.245l-0.002 0.005 2.489-6.46c-1.588-2.442-2.533-5.43-2.533-8.639 0-8.836 7.163-15.999 15.999-15.999 0 0 0 0 0 0h0.014c8.834 0.004 15.994 7.166 15.994 16.001 0 8.837-7.164 16.001-16.001 16.001-0.002 0-0.005 0-0.007 0h0zM11.335 7.999c-1.904 0.331-3.334 1.971-3.334 3.946 0 0.019 0 0.037 0 0.056l-0-0.003c0 2.093 2.505 6.121 4.194 7.805s5.713 4.195 7.805 4.195h0.042c0.002 0 0.004 0 0.007 0 1.976 0 3.617-1.429 3.948-3.31l0.003-0.024v-1.333c0-0.001 0-0.002 0-0.002 0-0.261-0.15-0.487-0.369-0.596l-0.004-0.002c-0.016-0.008-1.639-0.803-2.656-1.333-0.204-0.107-0.445-0.17-0.702-0.17-0.002 0-0.005 0-0.007 0h0c-0.982 0.146-1.831 0.627-2.445 1.321l-0.004 0.004c-1.040-0.405-1.93-0.98-2.679-1.701l0.003 0.003c-0.719-0.746-1.294-1.636-1.679-2.621l-0.019-0.054c0.68-0.691 1.74-2.017 1.153-3.158-0.529-1.028-1.332-2.654-1.333-2.656-0.113-0.218-0.336-0.365-0.594-0.366h-1.333z"></path>
</symbol>
<symbol id="icon-vib" viewBox="0 0 37 32">
<path fill="#aaeff9" style="fill: var(--color1, #aaeff9)" d="M33.027 31.915l-3.848-1.982c-1.071 0.296-2.3 0.467-3.57 0.467h-0c-6.417 0-11.636-4.31-11.636-9.602s5.222-9.599 11.636-9.599 11.636 4.31 11.636 9.599c-0.094 3.102-1.734 5.801-4.173 7.362l-0.036 0.022 1.054 2.719c0.035 0.088 0.056 0.19 0.056 0.296 0 0.131-0.031 0.254-0.085 0.364l0.002-0.005c-0.125 0.263-0.388 0.442-0.694 0.444h-0c-0.125-0.001-0.243-0.032-0.346-0.087l0.004 0.002zM27.938 17.6c0.026 0.837 0.711 1.505 1.552 1.505 0.858 0 1.553-0.695 1.553-1.553s-0.695-1.552-1.552-1.553h-0c-0.861 0.015-1.553 0.717-1.553 1.58 0 0.007 0 0.014 0 0.021v-0.001zM20.18 17.6c0.026 0.837 0.711 1.505 1.552 1.505 0.858 0 1.553-0.695 1.553-1.553s-0.695-1.552-1.552-1.553h-0c-0.862 0.014-1.556 0.716-1.556 1.58 0 0.007 0 0.014 0 0.021v-0.001zM3.527 25.517c-0.184-0.098-0.322-0.261-0.384-0.458l-0.002-0.006c-0.024-0.074-0.039-0.16-0.039-0.248 0-0.133 0.032-0.259 0.088-0.37l-0.002 0.005 1.602-3.304c-2.873-2.064-4.736-5.376-4.789-9.127l-0-0.008c0-6.618 6.094-12.001 13.581-12.001 0.155-0.006 0.336-0.010 0.518-0.010 5.656 0 10.493 3.508 12.454 8.467l0.032 0.091c0.027 0.078 0.043 0.168 0.043 0.262 0 0.176-0.055 0.339-0.15 0.472l0.002-0.003c-0.147 0.2-0.38 0.33-0.643 0.333h-0.001l-0.228-0.013c-7.275 0-13.192 5.028-13.192 11.205 0.005 0.751 0.097 1.477 0.265 2.174l-0.013-0.065c0.013 0.054 0.020 0.115 0.020 0.179 0 0.034-0.002 0.067-0.006 0.1l0-0.004c-0.039 0.395-0.367 0.703-0.768 0.708h-0.001c-0.014 0.001-0.029 0.001-0.045 0.001s-0.032-0-0.047-0.001l0.002 0c-1.28-0.148-2.447-0.434-3.551-0.846l0.104 0.034-4.107 2.421c-0.112 0.072-0.249 0.114-0.396 0.114-0.13 0-0.252-0.033-0.358-0.092l0.004 0.002zM15.524 7.2c0.038 1.257 1.066 2.261 2.329 2.261 1.287 0 2.33-1.043 2.33-2.33s-1.043-2.33-2.33-2.33c-0.001 0-0.001 0-0.002 0h0c-1.295 0.017-2.337 1.070-2.337 2.367 0 0.011 0 0.022 0 0.033l-0-0.002zM6.212 7.2c0.038 1.257 1.066 2.261 2.329 2.261 1.287 0 2.33-1.043 2.33-2.33s-1.043-2.33-2.33-2.33c-0.001 0-0.001 0-0.002 0h0c-1.292 0.022-2.33 1.074-2.33 2.369 0 0.011 0 0.021 0 0.032l-0-0.002z"></path>
</symbol>
</defs>
</svg>
